<svg width="2977" height="6917" viewBox="0 0 2977 6917" fill="none" xmlns="http://www.w3.org/2000/svg">
<g clip-path="url(#clip0_1017_1346)">
<rect width="2977" height="6917" fill="white"/>
<line x1="8.75" y1="4" x2="8.74994" y2="7081" stroke="#1F1F1F" stroke-opacity="0.1" stroke-width="2"/>
<line x1="109.75" y1="4" x2="109.75" y2="7081" stroke="#1F1F1F" stroke-opacity="0.1" stroke-width="2"/>
<line x1="210.75" y1="4" x2="210.75" y2="7081" stroke="#1F1F1F" stroke-opacity="0.1" stroke-width="2"/>
<line x1="311.75" y1="4" x2="311.75" y2="7081" stroke="#1F1F1F" stroke-opacity="0.1" stroke-width="2"/>
<line x1="412.75" y1="4" x2="412.75" y2="7081" stroke="#1F1F1F" stroke-opacity="0.1" stroke-width="2"/>
<line x1="513.75" y1="4" x2="513.75" y2="7081" stroke="#1F1F1F" stroke-opacity="0.1" stroke-width="2"/>
<line x1="614.75" y1="4" x2="614.75" y2="7081" stroke="#1F1F1F" stroke-opacity="0.1" stroke-width="2"/>
<line x1="715.75" y1="4" x2="715.75" y2="7081" stroke="#1F1F1F" stroke-opacity="0.1" stroke-width="2"/>
<line x1="816.75" y1="4" x2="816.75" y2="7081" stroke="#1F1F1F" stroke-opacity="0.1" stroke-width="2"/>
<line x1="917.75" y1="4" x2="917.75" y2="7081" stroke="#1F1F1F" stroke-opacity="0.1" stroke-width="2"/>
<line x1="1018.75" y1="3" x2="1018.75" y2="7080" stroke="#1F1F1F" stroke-opacity="0.1" stroke-width="2"/>
<line x1="1119.75" y1="3" x2="1119.75" y2="7080" stroke="#1F1F1F" stroke-opacity="0.1" stroke-width="2"/>
<line x1="1220.75" y1="3" x2="1220.75" y2="7080" stroke="#1F1F1F" stroke-opacity="0.1" stroke-width="2"/>
<line x1="1321.75" y1="3" x2="1321.75" y2="7080" stroke="#1F1F1F" stroke-opacity="0.1" stroke-width="2"/>
<line x1="1422.75" y1="3" x2="1422.75" y2="7080" stroke="#1F1F1F" stroke-opacity="0.1" stroke-width="2"/>
<line x1="1523.75" y1="3" x2="1523.75" y2="7080" stroke="#1F1F1F" stroke-opacity="0.1" stroke-width="2"/>
<line x1="1624.75" y1="3" x2="1624.75" y2="7080" stroke="#1F1F1F" stroke-opacity="0.1" stroke-width="2"/>
<line x1="1725.75" y1="3" x2="1725.75" y2="7080" stroke="#1F1F1F" stroke-opacity="0.1" stroke-width="2"/>
<line x1="1826.75" y1="3" x2="1826.75" y2="7080" stroke="#1F1F1F" stroke-opacity="0.1" stroke-width="2"/>
<line x1="1927.75" y1="3" x2="1927.75" y2="7080" stroke="#1F1F1F" stroke-opacity="0.1" stroke-width="2"/>
<line x1="2028.75" y1="3" x2="2028.75" y2="7080" stroke="#1F1F1F" stroke-opacity="0.1" stroke-width="2"/>
<line x1="2129.75" y1="3" x2="2129.75" y2="7080" stroke="#1F1F1F" stroke-opacity="0.1" stroke-width="2"/>
<line x1="2230.75" y1="3" x2="2230.75" y2="7080" stroke="#1F1F1F" stroke-opacity="0.1" stroke-width="2"/>
<line x1="2331.75" y1="3" x2="2331.75" y2="7080" stroke="#1F1F1F" stroke-opacity="0.1" stroke-width="2"/>
<line x1="2432.75" y1="3" x2="2432.75" y2="7080" stroke="#1F1F1F" stroke-opacity="0.1" stroke-width="2"/>
<line x1="2533.75" y1="3" x2="2533.75" y2="7080" stroke="#1F1F1F" stroke-opacity="0.1" stroke-width="2"/>
<line x1="2634.75" y1="3" x2="2634.75" y2="7080" stroke="#1F1F1F" stroke-opacity="0.1" stroke-width="2"/>
<line x1="2735.75" y1="3" x2="2735.75" y2="7080" stroke="#1F1F1F" stroke-opacity="0.1" stroke-width="2"/>
<line x1="2836.75" y1="3" x2="2836.75" y2="7080" stroke="#1F1F1F" stroke-opacity="0.1" stroke-width="2"/>
<line x1="2938" y1="3" x2="2938" y2="7081" stroke="#1F1F1F" stroke-opacity="0.1" stroke-width="2"/>
<line x1="1137" y1="1" x2="-213" y2="0.999882" stroke="#1F1F1F" stroke-opacity="0.1" stroke-width="2"/>
<line x1="2977" y1="102" x2="-213" y2="102" stroke="#1F1F1F" stroke-opacity="0.1" stroke-width="2"/>
<line x1="2977" y1="203" x2="-213" y2="203" stroke="#1F1F1F" stroke-opacity="0.1" stroke-width="2"/>
<line x1="2977" y1="304" x2="-213" y2="304" stroke="#1F1F1F" stroke-opacity="0.1" stroke-width="2"/>
<line x1="2977" y1="405" x2="-213" y2="405" stroke="#1F1F1F" stroke-opacity="0.1" stroke-width="2"/>
<line x1="2977" y1="506" x2="-213" y2="506" stroke="#1F1F1F" stroke-opacity="0.1" stroke-width="2"/>
<line x1="2977" y1="607" x2="-213" y2="607" stroke="#1F1F1F" stroke-opacity="0.1" stroke-width="2"/>
<line x1="2977" y1="708" x2="-213" y2="708" stroke="#1F1F1F" stroke-opacity="0.1" stroke-width="2"/>
<line x1="2977" y1="809" x2="-213" y2="809" stroke="#1F1F1F" stroke-opacity="0.1" stroke-width="2"/>
<line x1="2977" y1="910" x2="-213" y2="910" stroke="#1F1F1F" stroke-opacity="0.1" stroke-width="2"/>
<line x1="2960" y1="1007.99" x2="-213" y2="1007.99" stroke="#1F1F1F" stroke-opacity="0.1" stroke-width="2"/>
<line x1="2960" y1="1105.99" x2="-213" y2="1105.99" stroke="#1F1F1F" stroke-opacity="0.1" stroke-width="2"/>
<line x1="2960" y1="1204.99" x2="-213" y2="1204.99" stroke="#1F1F1F" stroke-opacity="0.1" stroke-width="2"/>
<line x1="2960" y1="1302.99" x2="-213" y2="1302.99" stroke="#1F1F1F" stroke-opacity="0.1" stroke-width="2"/>
<line x1="2977" y1="1401" x2="-213" y2="1401" stroke="#1F1F1F" stroke-opacity="0.1" stroke-width="2"/>
<line x1="2977" y1="1502" x2="-213" y2="1502" stroke="#1F1F1F" stroke-opacity="0.1" stroke-width="2"/>
<line x1="2977" y1="1603" x2="-213" y2="1603" stroke="#1F1F1F" stroke-opacity="0.1" stroke-width="2"/>
<line x1="2977" y1="1704" x2="-213" y2="1704" stroke="#1F1F1F" stroke-opacity="0.1" stroke-width="2"/>
<line x1="2977" y1="1805" x2="-213" y2="1805" stroke="#1F1F1F" stroke-opacity="0.1" stroke-width="2"/>
<line x1="2977" y1="1906" x2="-213" y2="1906" stroke="#1F1F1F" stroke-opacity="0.1" stroke-width="2"/>
<line x1="2977" y1="2007" x2="-213" y2="2007" stroke="#1F1F1F" stroke-opacity="0.1" stroke-width="2"/>
<line x1="2977" y1="2108" x2="-213" y2="2108" stroke="#1F1F1F" stroke-opacity="0.1" stroke-width="2"/>
<line x1="2977" y1="2209" x2="-213" y2="2209" stroke="#1F1F1F" stroke-opacity="0.1" stroke-width="2"/>
<line x1="2960" y1="2306.99" x2="-213" y2="2306.99" stroke="#1F1F1F" stroke-opacity="0.1" stroke-width="2"/>
<line x1="2960" y1="2404.99" x2="-213" y2="2404.99" stroke="#1F1F1F" stroke-opacity="0.1" stroke-width="2"/>
<line x1="2960" y1="2503.99" x2="-213" y2="2503.99" stroke="#1F1F1F" stroke-opacity="0.1" stroke-width="2"/>
<line x1="2960" y1="2601.99" x2="-213" y2="2601.99" stroke="#1F1F1F" stroke-opacity="0.1" stroke-width="2"/>
<line x1="2977" y1="2703" x2="-213" y2="2703" stroke="#1F1F1F" stroke-opacity="0.1" stroke-width="2"/>
<line x1="2977" y1="2804" x2="-213" y2="2804" stroke="#1F1F1F" stroke-opacity="0.1" stroke-width="2"/>
<line x1="2977" y1="2905" x2="-213" y2="2905" stroke="#1F1F1F" stroke-opacity="0.1" stroke-width="2"/>
<line x1="2977" y1="3006" x2="-213" y2="3006" stroke="#1F1F1F" stroke-opacity="0.1" stroke-width="2"/>
<line x1="2977" y1="3107" x2="-213" y2="3107" stroke="#1F1F1F" stroke-opacity="0.1" stroke-width="2"/>
<line x1="2977" y1="3208" x2="-213" y2="3208" stroke="#1F1F1F" stroke-opacity="0.1" stroke-width="2"/>
<line x1="2977" y1="3309" x2="-213" y2="3309" stroke="#1F1F1F" stroke-opacity="0.1" stroke-width="2"/>
<line x1="2977" y1="3410" x2="-213" y2="3410" stroke="#1F1F1F" stroke-opacity="0.1" stroke-width="2"/>
<line x1="2977" y1="3511" x2="-213" y2="3511" stroke="#1F1F1F" stroke-opacity="0.1" stroke-width="2"/>
<line x1="2960" y1="3608.99" x2="-213" y2="3608.99" stroke="#1F1F1F" stroke-opacity="0.1" stroke-width="2"/>
<line x1="2960" y1="3706.99" x2="-213" y2="3706.99" stroke="#1F1F1F" stroke-opacity="0.1" stroke-width="2"/>
<line x1="2960" y1="3805.99" x2="-213" y2="3805.99" stroke="#1F1F1F" stroke-opacity="0.1" stroke-width="2"/>
<line x1="2960" y1="3903.99" x2="-213" y2="3903.99" stroke="#1F1F1F" stroke-opacity="0.1" stroke-width="2"/>
<line x1="3001" y1="4005" x2="-189" y2="4005" stroke="#1F1F1F" stroke-opacity="0.1" stroke-width="2"/>
<line x1="3001" y1="4106" x2="-189" y2="4106" stroke="#1F1F1F" stroke-opacity="0.1" stroke-width="2"/>
<line x1="3001" y1="4207" x2="-189" y2="4207" stroke="#1F1F1F" stroke-opacity="0.1" stroke-width="2"/>
<line x1="3001" y1="4308" x2="-189" y2="4308" stroke="#1F1F1F" stroke-opacity="0.1" stroke-width="2"/>
<line x1="3001" y1="4409" x2="-189" y2="4409" stroke="#1F1F1F" stroke-opacity="0.1" stroke-width="2"/>
<line x1="3001" y1="4510" x2="-189" y2="4510" stroke="#1F1F1F" stroke-opacity="0.1" stroke-width="2"/>
<line x1="3001" y1="4611" x2="-189" y2="4611" stroke="#1F1F1F" stroke-opacity="0.1" stroke-width="2"/>
<line x1="3001" y1="4712" x2="-189" y2="4712" stroke="#1F1F1F" stroke-opacity="0.1" stroke-width="2"/>
<line x1="3001" y1="4813" x2="-189" y2="4813" stroke="#1F1F1F" stroke-opacity="0.1" stroke-width="2"/>
<line x1="2984" y1="4910.99" x2="-189" y2="4910.99" stroke="#1F1F1F" stroke-opacity="0.1" stroke-width="2"/>
<line x1="2984" y1="5008.99" x2="-189" y2="5008.99" stroke="#1F1F1F" stroke-opacity="0.1" stroke-width="2"/>
<line x1="2984" y1="5107.99" x2="-189" y2="5107.99" stroke="#1F1F1F" stroke-opacity="0.1" stroke-width="2"/>
<line x1="2984" y1="5205.99" x2="-189" y2="5205.99" stroke="#1F1F1F" stroke-opacity="0.1" stroke-width="2"/>
<line x1="3017" y1="5307" x2="-173" y2="5307" stroke="#1F1F1F" stroke-opacity="0.1" stroke-width="2"/>
<line x1="3017" y1="5408" x2="-173" y2="5408" stroke="#1F1F1F" stroke-opacity="0.1" stroke-width="2"/>
<line x1="3017" y1="5509" x2="-173" y2="5509" stroke="#1F1F1F" stroke-opacity="0.1" stroke-width="2"/>
<line x1="3017" y1="5610" x2="-173" y2="5610" stroke="#1F1F1F" stroke-opacity="0.1" stroke-width="2"/>
<line x1="3017" y1="5711" x2="-173" y2="5711" stroke="#1F1F1F" stroke-opacity="0.1" stroke-width="2"/>
<line x1="3017" y1="5812" x2="-173" y2="5812" stroke="#1F1F1F" stroke-opacity="0.1" stroke-width="2"/>
<line x1="3017" y1="5913" x2="-173" y2="5913" stroke="#1F1F1F" stroke-opacity="0.1" stroke-width="2"/>
<line x1="3017" y1="6014" x2="-173" y2="6014" stroke="#1F1F1F" stroke-opacity="0.1" stroke-width="2"/>
<line x1="3017" y1="6115" x2="-173" y2="6115" stroke="#1F1F1F" stroke-opacity="0.1" stroke-width="2"/>
<line x1="3000" y1="6212.99" x2="-173" y2="6212.99" stroke="#1F1F1F" stroke-opacity="0.1" stroke-width="2"/>
<line x1="3000" y1="6310.99" x2="-173" y2="6310.99" stroke="#1F1F1F" stroke-opacity="0.1" stroke-width="2"/>
<line x1="3000" y1="6409.99" x2="-173" y2="6409.99" stroke="#1F1F1F" stroke-opacity="0.1" stroke-width="2"/>
<line x1="3000" y1="6507.99" x2="-173" y2="6507.99" stroke="#1F1F1F" stroke-opacity="0.1" stroke-width="2"/>
<line x1="3017" y1="6606" x2="-173" y2="6606" stroke="#1F1F1F" stroke-opacity="0.1" stroke-width="2"/>
<line x1="3017" y1="6707" x2="-173" y2="6707" stroke="#1F1F1F" stroke-opacity="0.1" stroke-width="2"/>
<line x1="3017" y1="6808" x2="-173" y2="6808" stroke="#1F1F1F" stroke-opacity="0.1" stroke-width="2"/>
<line x1="3000" y1="6905.99" x2="-173" y2="6905.99" stroke="#1F1F1F" stroke-opacity="0.1" stroke-width="2"/>
</g>
<defs>
<clipPath id="clip0_1017_1346">
<rect width="2977" height="6917" fill="white"/>
</clipPath>
</defs>
</svg>
